<svg xmlns="http://www.w3.org/2000/svg" width="110" height="110" viewBox="0 0 110 110">
  <metadata><?xpacket begin="﻿" id="W5M0MpCehiHzreSzNTczkc9d"?>
<x:xmpmeta xmlns:x="adobe:ns:meta/" x:xmptk="Adobe XMP Core 5.6-c138 79.159824, 2016/09/14-01:09:01        ">
   <rdf:RDF xmlns:rdf="http://www.w3.org/1999/02/22-rdf-syntax-ns#">
      <rdf:Description rdf:about=""/>
   </rdf:RDF>
</x:xmpmeta>
                                                                                                    
                                                                                                    
                                                                                                    
                                                                                                    
                                                                                                    
                                                                                                    
                                                                                                    
                                                                                                    
                                                                                                    
                                                                                                    
                                                                                                    
                                                                                                    
                                                                                                    
                                                                                                    
                                                                                                    
                                                                                                    
                                                                                                    
                                                                                                    
                                                                                                    
                                                                                                    
                           
<?xpacket end="w"?></metadata>
<defs>
    <style>
      .cls-1 {
        fill: #5b5b5b;
        fill-rule: evenodd;
      }
    </style>
  </defs>
  <path class="cls-1" d="M53.914,51.446a1.5,1.5,0,0,0-.084-0.27,1.574,1.574,0,0,0-.133-0.249,1.513,1.513,0,0,0-.179-0.219,1.382,1.382,0,0,0-.22-0.179,1.412,1.412,0,0,0-.248-0.133,1.52,1.52,0,0,0-.271-0.082,1.427,1.427,0,0,0-.562,0,1.5,1.5,0,0,0-.27.082,1.455,1.455,0,0,0-.468.312,1.508,1.508,0,0,0-.179.219,1.448,1.448,0,0,0-.133.249,1.343,1.343,0,0,0-.082.27,1.394,1.394,0,0,0,0,.564,1.347,1.347,0,0,0,.082.27,1.446,1.446,0,0,0,.312.468,1.3,1.3,0,0,0,.219.179,1.434,1.434,0,0,0,.249.133,1.488,1.488,0,0,0,.27.082,1.382,1.382,0,0,0,.562,0,1.529,1.529,0,0,0,.271-0.082,1.411,1.411,0,0,0,.248-0.133,1.3,1.3,0,0,0,.22-0.179,1.445,1.445,0,0,0,.179-0.219,1.558,1.558,0,0,0,.133-0.249,1.5,1.5,0,0,0,.084-0.27,1.458,1.458,0,0,0,0-.564h0Zm0,0M92.826,41.292L85.715,28.235a1.443,1.443,0,0,0-.818-0.68l-31.94-9.483a1.444,1.444,0,0,0-.915,0L20.115,27.55a1.442,1.442,0,0,0-.83.685L12.173,41.292a1.441,1.441,0,0,0,.734,2.029l6.2,2.464V74.91a1.441,1.441,0,0,0,.934,1.349l31.95,10.648h0l0.029,0.011,0.01,0,0.018,0.006,0.016,0.006,0.01,0L52.1,86.942h0a1.436,1.436,0,0,0,.907-0.035h0L84.956,76.259a1.441,1.441,0,0,0,.935-1.349V45.785l6.2-2.464a1.441,1.441,0,0,0,.733-2.029h0ZM52.5,20.958L80.193,29.02,52.5,38.3,24.807,29.02ZM15.483,41.243l5.729-10.52,29.163,9.848-10,10.558Zm67.525,32.67L53.941,83.477V57.086a1.441,1.441,0,0,0-2.883,0V83.477L21.992,73.913V46.93l18.448,7.329a1.44,1.44,0,0,0,1.765-.593L52.5,42.626l10.294,11.04a1.44,1.44,0,0,0,1.765.593L83.008,46.93v5.356l-14.44,5.692a1.442,1.442,0,0,0-.913,1.341v10.61a1.442,1.442,0,0,0,1.971,1.341l13.383-5.276v7.919Zm0-18.528V62.9l-12.47,4.916V60.3ZM64.628,51.13l-10-10.558,29.163-9.848,5.73,10.519Zm0,0" transform="translate(2.5 2.5)"/>
</svg>
