<svg xmlns="http://www.w3.org/2000/svg" width="110" height="110" viewBox="0 0 110 110">
  <metadata><?xpacket begin="﻿" id="W5M0MpCehiHzreSzNTczkc9d"?>
<x:xmpmeta xmlns:x="adobe:ns:meta/" x:xmptk="Adobe XMP Core 5.6-c138 79.159824, 2016/09/14-01:09:01        ">
   <rdf:RDF xmlns:rdf="http://www.w3.org/1999/02/22-rdf-syntax-ns#">
      <rdf:Description rdf:about=""/>
   </rdf:RDF>
</x:xmpmeta>
                                                                                                    
                                                                                                    
                                                                                                    
                                                                                                    
                                                                                                    
                                                                                                    
                                                                                                    
                                                                                                    
                                                                                                    
                                                                                                    
                                                                                                    
                                                                                                    
                                                                                                    
                                                                                                    
                                                                                                    
                                                                                                    
                                                                                                    
                                                                                                    
                                                                                                    
                                                                                                    
                           
<?xpacket end="w"?></metadata>
<defs>
    <style>
      .cls-1 {
        fill: #5b5b5b;
        fill-rule: evenodd;
      }
    </style>
  </defs>
  <path class="cls-1" d="M86.411,18H19.588A4.638,4.638,0,0,0,15,22.677V69.694a4.638,4.638,0,0,0,4.588,4.676h22.9v3.4a5.611,5.611,0,0,1-5.55,5.656H31.889a1.786,1.786,0,0,0,0,3.571H74.11a1.786,1.786,0,0,0,0-3.571H69.063a5.611,5.611,0,0,1-5.55-5.656v-3.4h22.9A4.638,4.638,0,0,0,91,69.7V22.677A4.637,4.637,0,0,0,86.411,18h0ZM44.081,83.429a9.29,9.29,0,0,0,1.909-5.656v-3.4H60.009v3.4a9.3,9.3,0,0,0,1.908,5.656H44.081ZM87.5,69.7a1.1,1.1,0,0,1-1.084,1.1H19.588A1.1,1.1,0,0,1,18.5,69.7V60.311H87.5V69.7Zm0-12.955H18.5V22.677a1.1,1.1,0,0,1,1.084-1.105H86.411A1.1,1.1,0,0,1,87.5,22.677V56.74Zm0,0-32.6,8.816A1.891,1.891,0,1,1,53,63.629a1.909,1.909,0,0,1,1.891,1.927h0Zm0,0M56,30.3a1.729,1.729,0,0,0-2.478,0L41.145,42.92a1.81,1.81,0,0,0,0,2.525,1.728,1.728,0,0,0,2.477,0L56,32.827A1.812,1.812,0,0,0,56,30.3h0Zm0,0,7.338,7.313a1.729,1.729,0,0,0-2.478,0L55.932,42.64a1.81,1.81,0,0,0,0,2.525,1.729,1.729,0,0,0,2.477,0l4.933-5.027a1.81,1.81,0,0,0,0-2.525h0Zm0,0" transform="translate(2 2.5)"/>
</svg>
