<svg xmlns="http://www.w3.org/2000/svg" width="110" height="110" viewBox="0 0 110 110">
  <metadata><?xpacket begin="﻿" id="W5M0MpCehiHzreSzNTczkc9d"?>
<x:xmpmeta xmlns:x="adobe:ns:meta/" x:xmptk="Adobe XMP Core 5.6-c138 79.159824, 2016/09/14-01:09:01        ">
   <rdf:RDF xmlns:rdf="http://www.w3.org/1999/02/22-rdf-syntax-ns#">
      <rdf:Description rdf:about=""/>
   </rdf:RDF>
</x:xmpmeta>
                                                                                                    
                                                                                                    
                                                                                                    
                                                                                                    
                                                                                                    
                                                                                                    
                                                                                                    
                                                                                                    
                                                                                                    
                                                                                                    
                                                                                                    
                                                                                                    
                                                                                                    
                                                                                                    
                                                                                                    
                                                                                                    
                                                                                                    
                                                                                                    
                                                                                                    
                                                                                                    
                           
<?xpacket end="w"?></metadata>
<defs>
    <style>
      .cls-1 {
        fill: #5b5b5b;
        fill-rule: evenodd;
      }
    </style>
  </defs>
  <path class="cls-1" d="M24.664,71.947H24.647a1.627,1.627,0,1,0,.017,0h0Zm0,0,13.839,0H38.485a1.627,1.627,0,1,0,.018,0h0Zm0,0,43.6,0H82.083a1.627,1.627,0,1,0,.017,0h0Zm0,0M99.512,52.576l-2.176-2.154L92.952,37.4a1.6,1.6,0,0,0-.49-3.129H76.782v-6.96A3.335,3.335,0,0,0,73.433,24H7.349A3.335,3.335,0,0,0,4,27.315V64.987A3.335,3.335,0,0,0,7.349,68.3H9.189v3.534a3.336,3.336,0,0,0,3.349,3.315h3.727a8.562,8.562,0,0,0,15.3,3.34,8.563,8.563,0,0,0,15.3-3.34H73.7a8.545,8.545,0,0,0,16.919-1.6c0-.038,0-0.073,0-0.109h7.035A3.335,3.335,0,0,0,101,70.125V56.131a4.965,4.965,0,0,0-1.486-3.555h0ZM16.265,71.947H12.538a0.111,0.111,0,0,1-.112-0.111V68.3H17.96a8.39,8.39,0,0,0-1.7,3.645h0Zm8.382,6.85A5.247,5.247,0,1,1,24.613,68.3H24.68A5.247,5.247,0,1,1,24.647,78.8h0Zm13.838,0A5.247,5.247,0,1,1,38.452,68.3h0.066A5.247,5.247,0,1,1,38.485,78.8h0ZM73.7,71.947H46.867a8.377,8.377,0,0,0-1.7-3.645H63.055a1.6,1.6,0,1,0,0-3.2H7.349a0.111,0.111,0,0,1-.112-0.111V27.315A0.111,0.111,0,0,1,7.349,27.2H73.433a0.111,0.111,0,0,1,.112.111V65.1H69.974a1.6,1.6,0,1,0,0,3.2H75.4a8.381,8.381,0,0,0-1.7,3.645h0ZM94.252,51.4H83.812a0.111,0.111,0,0,1-.111-0.111V44.327h8.17ZM82.083,78.8A5.247,5.247,0,1,1,82.049,68.3h0.044a5.248,5.248,0,1,1-.01,10.5h0Zm15.68-8.671a0.111,0.111,0,0,1-.112.11H89.936A8.553,8.553,0,0,0,82.083,65.1h-5.3V37.588a0.11,0.11,0,0,1,.112-0.109H89.565l1.228,3.644h-8.71a1.61,1.61,0,0,0-1.618,1.6v8.563A3.335,3.335,0,0,0,83.812,54.6H96.981l0.243,0.24a1.8,1.8,0,0,1,.54,1.288v3.83H95.921a1.6,1.6,0,1,0,0,3.2h1.842v6.96Zm0,0M68.244,58.248H12.538a1.6,1.6,0,1,0,0,3.2H68.244a1.6,1.6,0,1,0,0-3.2h0Zm0,0" transform="translate(2.5 2)"/>
</svg>
